# Blender v2.74 (sub 0) OBJ File: ''
# www.blender.org
mtllib trident_piece.mtl
o Cylinder
v 0.000000 -3.520507 -1.000000
v 0.000000 3.520507 -1.000000
v 0.195090 -3.520507 -0.980785
v 0.195090 3.520507 -0.980785
v 0.382683 -3.520507 -0.923880
v 0.382683 3.520507 -0.923880
v 0.555570 -3.520507 -0.831470
v 0.555570 3.520507 -0.831470
v 0.707107 -3.520507 -0.707107
v 0.707107 3.520507 -0.707107
v 0.831470 -3.520507 -0.555570
v 0.831470 3.520507 -0.555570
v 0.923880 -3.520507 -0.382683
v 0.923880 3.520507 -0.382683
v 0.980785 -3.520507 -0.195090
v 0.980785 3.520507 -0.195090
v 1.000000 -3.520507 -0.000000
v 1.000000 3.520507 -0.000000
v 0.980785 -3.520507 0.195090
v 0.980785 3.520507 0.195090
v 0.923880 -3.520507 0.382683
v 0.923880 3.520507 0.382683
v 0.831470 -3.520507 0.555570
v 0.831470 3.520507 0.555570
v 0.707107 -3.520507 0.707107
v 0.707107 3.520507 0.707107
v 0.555570 -3.520507 0.831470
v 0.555570 3.520507 0.831470
v 0.382683 -3.520507 0.923880
v 0.382683 3.520507 0.923880
v 0.195090 -3.520507 0.980785
v 0.195090 3.520507 0.980785
v -0.000000 -3.520507 1.000000
v -0.000000 3.520507 1.000000
v -0.195091 -3.520507 0.980785
v -0.195091 3.520507 0.980785
v -0.382684 -3.520507 0.923879
v -0.382684 3.520507 0.923879
v -0.555571 -3.520507 0.831469
v -0.555571 3.520507 0.831469
v -0.707107 -3.520507 0.707106
v -0.707107 3.520507 0.707106
v -0.831470 -3.520507 0.555570
v -0.831470 3.520507 0.555570
v -0.923880 -3.520507 0.382683
v -0.923880 3.520507 0.382683
v -0.980785 -3.520507 0.195089
v -0.980785 3.520507 0.195089
v -1.000000 -3.520507 -0.000001
v -1.000000 3.520507 -0.000001
v -0.980785 -3.520507 -0.195091
v -0.980785 3.520507 -0.195091
v -0.923879 -3.520507 -0.382684
v -0.923879 3.520507 -0.382684
v -0.831469 -3.520507 -0.555571
v -0.831469 3.520507 -0.555571
v -0.707106 -3.520507 -0.707108
v -0.707106 3.520507 -0.707108
v -0.555569 -3.520507 -0.831470
v -0.555569 3.520507 -0.831470
v -0.382682 -3.520507 -0.923880
v -0.382682 3.520507 -0.923880
v -0.195089 -3.520507 -0.980786
v -0.195089 3.520507 -0.980786
v -0.000000 3.520507 -1.564749
v 0.305267 3.520507 -1.534683
v 0.598804 3.520507 -1.445640
v 0.869328 3.520507 -1.301041
v 1.106445 3.520507 -1.106445
v 1.301042 3.520507 -0.869328
v 1.445640 3.520507 -0.598804
v 1.534683 3.520507 -0.305267
v 1.564749 3.520507 0.000000
v 1.534683 3.520507 0.305267
v 1.445640 3.520507 0.598804
v 1.301042 3.520507 0.869328
v 1.106445 3.520507 1.106445
v 0.869328 3.520507 1.301042
v 0.598803 3.520507 1.445640
v 0.305267 3.520507 1.534684
v -0.000001 3.520507 1.564750
v -0.305268 3.520507 1.534683
v -0.598804 3.520507 1.445640
v -0.869329 3.520507 1.301041
v -1.106446 3.520507 1.106444
v -1.301042 3.520507 0.869327
v -1.445641 3.520507 0.598803
v -1.534684 3.520507 0.305266
v -1.564750 3.520507 -0.000001
v -1.534683 3.520507 -0.305269
v -1.445639 3.520507 -0.598805
v -1.301041 3.520507 -0.869330
v -1.106444 3.520507 -1.106446
v -0.869327 3.520507 -1.301043
v -0.598802 3.520507 -1.445641
v -0.305265 3.520507 -1.534683
v 0.000000 6.223073 -0.000000
vn 0.000000 -0.729800 -0.683600
vn 0.133300 -0.729800 -0.670500
vn 0.142000 -0.685700 -0.713900
vn 0.261600 -0.729800 -0.631600
vn 0.278500 -0.685700 -0.672500
vn 0.379800 -0.729800 -0.568400
vn 0.404400 -0.685700 -0.605200
vn 0.483400 -0.729800 -0.483400
vn 0.514700 -0.685700 -0.514700
vn 0.568400 -0.729800 -0.379800
vn 0.605200 -0.685700 -0.404400
vn 0.631600 -0.729800 -0.261600
vn 0.672500 -0.685700 -0.278500
vn 0.670500 -0.729800 -0.133300
vn 0.713900 -0.685700 -0.142000
vn 0.683600 -0.729800 0.000000
vn 0.727900 -0.685700 0.000000
vn 0.670500 -0.729800 0.133300
vn 0.713900 -0.685700 0.142000
vn 0.631600 -0.729800 0.261600
vn 0.672500 -0.685700 0.278500
vn 0.568400 -0.729800 0.379800
vn 0.605200 -0.685700 0.404400
vn 0.483400 -0.729800 0.483400
vn 0.514700 -0.685700 0.514700
vn 0.379800 -0.729800 0.568400
vn 0.404400 -0.685700 0.605200
vn 0.261600 -0.729800 0.631600
vn 0.278500 -0.685700 0.672500
vn 0.133300 -0.729800 0.670500
vn 0.142000 -0.685700 0.713900
vn 0.000000 -0.729800 0.683600
vn 0.000000 -0.685700 0.727900
vn -0.133300 -0.729800 0.670500
vn -0.142000 -0.685700 0.713900
vn -0.261600 -0.729800 0.631600
vn -0.278500 -0.685700 0.672500
vn -0.379800 -0.729800 0.568400
vn -0.404400 -0.685700 0.605200
vn -0.483400 -0.729800 0.483400
vn -0.514700 -0.685700 0.514700
vn -0.568400 -0.729800 0.379800
vn -0.605200 -0.685700 0.404400
vn -0.631600 -0.729800 0.261600
vn -0.672500 -0.685700 0.278500
vn -0.670500 -0.729800 0.133300
vn -0.713900 -0.685700 0.142000
vn -0.683600 -0.729800 0.000000
vn -0.727900 -0.685700 0.000000
vn -0.670500 -0.729800 -0.133400
vn -0.713900 -0.685700 -0.142000
vn -0.631600 -0.729800 -0.261600
vn -0.672500 -0.685700 -0.278500
vn -0.568400 -0.729800 -0.379800
vn -0.605200 -0.685700 -0.404400
vn -0.483400 -0.729800 -0.483400
vn -0.514700 -0.685700 -0.514700
vn -0.379800 -0.729800 -0.568400
vn -0.404400 -0.685700 -0.605200
vn -0.261600 -0.729800 -0.631600
vn -0.278500 -0.685700 -0.672500
vn -0.861800 -0.477400 -0.171400
vn -0.811800 -0.477400 -0.336300
vn -0.133300 -0.729800 -0.670500
vn 0.000000 -0.685700 -0.727900
vn -0.142000 -0.685700 -0.713900
vn 0.488100 -0.477400 -0.730600
vn 0.621300 -0.477400 -0.621300
vn 0.336300 -0.477400 0.811800
vn 0.171400 -0.477400 0.861800
vn -0.621300 -0.477400 -0.621300
vn -0.488100 -0.477400 -0.730600
vn -0.171400 -0.477400 0.861800
vn -0.336300 -0.477400 0.811800
vn 0.811800 -0.477400 -0.336300
vn 0.861800 -0.477400 -0.171400
vn -0.171400 -0.477400 -0.861800
vn 0.000000 -0.477400 -0.878700
vn -0.621300 -0.477400 0.621300
vn -0.730600 -0.477400 0.488100
vn 0.861800 -0.477400 0.171400
vn -0.861800 -0.477400 0.171400
vn 0.171400 -0.477400 -0.861800
vn 0.336300 -0.477400 -0.811800
vn 0.621300 -0.477400 0.621300
vn -0.730600 -0.477400 -0.488100
vn 0.000000 -0.477400 0.878700
vn -0.336200 -0.477400 -0.811800
vn -0.488100 -0.477400 0.730600
vn 0.878700 -0.477400 0.000000
vn -0.811800 -0.477400 0.336300
vn 0.811800 -0.477400 0.336300
vn -0.878700 -0.477400 0.000000
vn 0.488100 -0.477400 0.730600
vn 0.730600 -0.477400 -0.488100
vn 0.730600 -0.477400 0.488100
vn 0.000000 1.000000 0.000000
usemtl Material.001
s 1
f 2//1 4//2 3//3
f 4//2 6//4 5//5
f 6//4 8//6 7//7
f 8//6 10//8 9//9
f 10//8 12//10 11//11
f 12//10 14//12 13//13
f 14//12 16//14 15//15
f 16//14 18//16 17//17
f 18//16 20//18 19//19
f 20//18 22//20 21//21
f 22//20 24//22 23//23
f 24//22 26//24 25//25
f 26//24 28//26 27//27
f 28//26 30//28 29//29
f 30//28 32//30 31//31
f 32//30 34//32 33//33
f 34//32 36//34 35//35
f 36//34 38//36 37//37
f 38//36 40//38 39//39
f 40//38 42//40 41//41
f 42//40 44//42 43//43
f 44//42 46//44 45//45
f 46//44 48//46 47//47
f 48//46 50//48 49//49
f 50//48 52//50 51//51
f 52//50 54//52 53//53
f 54//52 56//54 55//55
f 56//54 58//56 57//57
f 58//56 60//58 59//59
f 60//58 62//60 61//61
f 52//50 90//62 91//63
f 64//64 2//1 1//65
f 62//60 64//64 63//66
f 1//65 17//17 33//33
f 8//6 68//67 69//68
f 30//28 79//69 80//70
f 58//56 93//71 94//72
f 36//34 82//73 83//74
f 14//12 71//75 72//76
f 64//64 96//77 65//78
f 42//40 85//79 86//80
f 22//20 20//18 74//81
f 50//48 48//46 88//82
f 4//2 66//83 67//84
f 28//26 26//24 77//85
f 54//52 91//63 92//86
f 12//10 10//8 69//68
f 32//30 80//70 81//87
f 60//58 94//72 95//88
f 38//36 83//74 84//89
f 2//1 65//78 66//83
f 16//14 72//76 73//90
f 44//42 86//80 87//91
f 24//22 22//20 75//92
f 50//48 89//93 90//62
f 8//6 6//4 67//84
f 30//28 28//26 78//94
f 56//54 92//86 93//71
f 36//34 34//32 81//87
f 12//10 70//95 71//75
f 62//60 95//88 96//77
f 42//40 40//38 84//89
f 20//18 18//16 73//90
f 46//44 87//91 88//82
f 26//24 24//22 76//96
f 91//63 90//62 97//97
f 69//68 68//67 97//97
f 80//70 79//69 97//97
f 89//93 88//82 97//97
f 67//84 66//83 97//97
f 78//94 77//85 97//97
f 87//91 86//80 97//97
f 76//96 75//92 97//97
f 96//77 95//88 97//97
f 85//79 84//89 97//97
f 74//81 73//90 97//97
f 94//72 93//71 97//97
f 83//74 82//73 97//97
f 72//76 71//75 97//97
f 92//86 91//63 97//97
f 70//95 69//68 97//97
f 81//87 80//70 97//97
f 90//62 89//93 97//97
f 68//67 67//84 97//97
f 79//69 78//94 97//97
f 88//82 87//91 97//97
f 66//83 65//78 97//97
f 77//85 76//96 97//97
f 65//78 96//77 97//97
f 86//80 85//79 97//97
f 75//92 74//81 97//97
f 95//88 94//72 97//97
f 84//89 83//74 97//97
f 73//90 72//76 97//97
f 93//71 92//86 97//97
f 82//73 81//87 97//97
f 71//75 70//95 97//97
f 1//65 2//1 3//3
f 3//3 4//2 5//5
f 5//5 6//4 7//7
f 7//7 8//6 9//9
f 9//9 10//8 11//11
f 11//11 12//10 13//13
f 13//13 14//12 15//15
f 15//15 16//14 17//17
f 17//17 18//16 19//19
f 19//19 20//18 21//21
f 21//21 22//20 23//23
f 23//23 24//22 25//25
f 25//25 26//24 27//27
f 27//27 28//26 29//29
f 29//29 30//28 31//31
f 31//31 32//30 33//33
f 33//33 34//32 35//35
f 35//35 36//34 37//37
f 37//37 38//36 39//39
f 39//39 40//38 41//41
f 41//41 42//40 43//43
f 43//43 44//42 45//45
f 45//45 46//44 47//47
f 47//47 48//46 49//49
f 49//49 50//48 51//51
f 51//51 52//50 53//53
f 53//53 54//52 55//55
f 55//55 56//54 57//57
f 57//57 58//56 59//59
f 59//59 60//58 61//61
f 54//52 52//50 91//63
f 63//66 64//64 1//65
f 61//61 62//60 63//66
f 57//57 63//66 1//65
f 57//57 59//59 61//61
f 53//53 55//55 57//57
f 49//49 51//51 53//53
f 41//41 47//47 49//49
f 41//41 43//43 45//45
f 37//37 39//39 41//41
f 33//33 35//35 37//37
f 25//25 31//31 33//33
f 25//25 27//27 29//29
f 21//21 23//23 25//25
f 17//17 19//19 21//21
f 13//13 15//15 17//17
f 9//9 11//11 13//13
f 5//5 7//7 9//9
f 1//65 3//3 5//5
f 57//57 61//61 63//66
f 49//49 53//53 57//57
f 41//41 45//45 47//47
f 49//49 37//37 41//41
f 25//25 29//29 31//31
f 33//33 21//21 25//25
f 1//65 13//13 17//17
f 1//65 5//5 9//9
f 33//33 57//57 1//65
f 33//33 37//37 49//49
f 17//17 21//21 33//33
f 1//65 9//9 13//13
f 33//33 49//49 57//57
f 10//8 8//6 69//68
f 32//30 30//28 80//70
f 60//58 58//56 94//72
f 38//36 36//34 83//74
f 16//14 14//12 72//76
f 2//1 64//64 65//78
f 44//42 42//40 86//80
f 75//92 22//20 74//81
f 89//93 50//48 88//82
f 6//4 4//2 67//84
f 78//94 28//26 77//85
f 56//54 54//52 92//86
f 70//95 12//10 69//68
f 34//32 32//30 81//87
f 62//60 60//58 95//88
f 40//38 38//36 84//89
f 4//2 2//1 66//83
f 18//16 16//14 73//90
f 46//44 44//42 87//91
f 76//96 24//22 75//92
f 52//50 50//48 90//62
f 68//67 8//6 67//84
f 79//69 30//28 78//94
f 58//56 56//54 93//71
f 82//73 36//34 81//87
f 14//12 12//10 71//75
f 64//64 62//60 96//77
f 85//79 42//40 84//89
f 74//81 20//18 73//90
f 48//46 46//44 88//82
f 77//85 26//24 76//96
